<svg xmlns="http://www.w3.org/2000/svg" xmlns:xlink="http://www.w3.org/1999/xlink" viewBox="0 0 609.29 126.86"><defs><style>.cls-1{fill:#fff;}.cls-2{fill:url(#Gradiente_sem_nome_12);}.cls-3{fill:url(#Gradiente_sem_nome_12-2);}.cls-4{fill:#f0c335;}</style><linearGradient id="Gradiente_sem_nome_12" x1="546.93" y1="64.06" x2="565.02" y2="64.06" gradientUnits="userSpaceOnUse"><stop offset="0" stop-color="#ff003d"/><stop offset="1" stop-color="#990234"/></linearGradient><linearGradient id="Gradiente_sem_nome_12-2" x1="600.25" y1="38.3" x2="600.25" y2="89.81" xlink:href="#Gradiente_sem_nome_12"/></defs><title>logo-crow</title><g id="Camada_2" data-name="Camada 2"><g id="Camada_1-2" data-name="Camada 1"><path class="cls-1" d="M54.09,78.69H17.81L13.37,89.82H0L35.89,0l36,89.82H58.53Zm-5-12.38L35.89,33.37,22.8,66.31Z"/><path class="cls-1" d="M123,95q0,16.77-9.87,25.32a24.85,24.85,0,0,1-16.82,6.52v-6l-.06-6.08a13.62,13.62,0,0,0,8.22-3q6.42-5,6.41-16.77V86a25,25,0,0,1-13.59,3.78,24.58,24.58,0,0,1-18.13-7.57,24.7,24.7,0,0,1-7.62-18.19,24.58,24.58,0,0,1,7.62-18.19,24.52,24.52,0,0,1,18.13-7.62A25.74,25.74,0,0,1,123,64.06ZM87.79,54.47a13.7,13.7,0,0,0,0,19.13,13.52,13.52,0,0,0,19.12-19.13,13.57,13.57,0,0,0-19.12,0Z"/><path class="cls-1" d="M155.47,89.82A26,26,0,0,1,146,88.06a25.53,25.53,0,0,1-8.33-5.31,24.12,24.12,0,0,1-5.86-8.33A24.12,24.12,0,0,1,129.6,65v-.82a25.71,25.71,0,0,1,1.75-9.43,26.2,26.2,0,0,1,5.26-8.32A24.76,24.76,0,0,1,145,40.55a25.56,25.56,0,0,1,9.7-2.25h.55a25.37,25.37,0,0,1,9.42,1.81A26.49,26.49,0,0,1,173,45.43q4.38,4.22,8.33,13.86L146.81,74.47a13.65,13.65,0,0,0,3.62,2.14,13.4,13.4,0,0,0,4.87.93h.55a13.75,13.75,0,0,0,9.32-4.22A17.52,17.52,0,0,0,167.91,69l11.39,4.39A26.79,26.79,0,0,1,174,81.71a24.16,24.16,0,0,1-8.33,5.86,24.48,24.48,0,0,1-9.48,2.25Zm-.55-39.24a14,14,0,0,0-9.43,4.22,18.21,18.21,0,0,0-2.68,4.33,13.37,13.37,0,0,0-.94,4.16l22-9.64a15.38,15.38,0,0,0-3.56-2.14,14.78,14.78,0,0,0-5.15-.93Z"/><path class="cls-1" d="M213.5,38.3A25.64,25.64,0,0,1,239,63.9V89.82H226.87V63.9a13.4,13.4,0,0,0-26.8,0V89.82H187.91V63.9A25.62,25.62,0,0,1,213.5,38.3Z"/><path class="cls-1" d="M283.26,70.58l9.86,7.4a26.72,26.72,0,0,1-3.5,4.27,24.85,24.85,0,0,1-18.25,7.57,24.59,24.59,0,0,1-18.14-7.57,24.7,24.7,0,0,1-7.62-18.19,24.54,24.54,0,0,1,7.62-18.14,24.52,24.52,0,0,1,18.14-7.62,24.78,24.78,0,0,1,18.25,7.62,25.14,25.14,0,0,1,3.5,4.22l-9.86,7.4a16.14,16.14,0,0,0-2.3-3A13.51,13.51,0,0,0,261.83,73.6a13.58,13.58,0,0,0,19.13,0A13.66,13.66,0,0,0,283.26,70.58Z"/><path class="cls-1" d="M312.69,51.4a7.17,7.17,0,0,1-5.32,2.25,7.4,7.4,0,0,1-5.43-2.25A7.52,7.52,0,0,1,299.7,46a7.66,7.66,0,0,1,7.67-7.68,7.17,7.17,0,0,1,5.32,2.25A7.43,7.43,0,0,1,314.93,46,7.52,7.52,0,0,1,312.69,51.4Zm.71,38.42H301.29V59.13H313.4Z"/><path class="cls-1" d="M361,86a25.17,25.17,0,0,1-13.71,3.84,24.58,24.58,0,0,1-18.13-7.57,24.7,24.7,0,0,1-7.62-18.19,24.54,24.54,0,0,1,7.62-18.14,24.52,24.52,0,0,1,18.13-7.62,25.93,25.93,0,0,1,25.82,25.76V89.82H361ZM337.73,54.53a13.5,13.5,0,1,0,23.07,9.53,13.52,13.52,0,0,0-23.07-9.53Z"/><path class="cls-1" d="M447.58,20.55a33.38,33.38,0,0,0-35.45-6.25,33.66,33.66,0,0,0-10.58,7.18A33.13,33.13,0,0,0,394.43,32a33.84,33.84,0,0,0,0,25.92,33.78,33.78,0,0,0,17.7,17.7,33.69,33.69,0,0,0,25.86,0,34.57,34.57,0,0,0,9.59-6.19l8.22,8.22a46.38,46.38,0,0,1-13.32,8.66,45.13,45.13,0,0,1-34.9,0,44.64,44.64,0,0,1-23.84-23.89,45.16,45.16,0,0,1,0-34.91,44.25,44.25,0,0,1,9.59-14.25A44.69,44.69,0,0,1,425.06.16,44.83,44.83,0,0,1,455.8,12.33Z"/><path class="cls-1" d="M477.83,40.33a25.37,25.37,0,0,1,9.86-2v12a13,13,0,0,0-5.15,1.05,13.89,13.89,0,0,0-4.22,2.9,11.82,11.82,0,0,0-2.79,4.16,8.74,8.74,0,0,0-1,4.72V89.82H462.38V38.3h12.11v3.79A22.18,22.18,0,0,1,477.83,40.33Z"/><path class="cls-1" d="M499,82.25a24.72,24.72,0,0,1-7.61-18.19A24.57,24.57,0,0,1,499,45.92a25.47,25.47,0,0,1,36.34,0,24.63,24.63,0,0,1,7.56,18.14,25.83,25.83,0,0,1-25.76,25.76A24.61,24.61,0,0,1,499,82.25Zm8.61-27.73a13.63,13.63,0,0,0,0,19.07,13.48,13.48,0,0,0,19.07-19.07,13.51,13.51,0,0,0-19.07,0Z"/><path class="cls-1" d="M600,89.82H586.44l-8.38-19.51-8.33,19.51H556.25L546.93,38.3h12.28L565,70.2l13-30.58L591.21,70.2,597,38.3h12.27Z"/><polygon class="cls-1" points="578.06 39.62 565.02 70.2 559.21 38.3 546.93 38.3 556.25 89.81 569.73 89.81 578.06 70.31 586.44 89.81 599.98 89.81 591.21 70.2 578.06 39.62"/><polygon class="cls-2" points="559.21 38.3 565.02 70.2 556.25 89.81 546.93 38.3 559.21 38.3"/><polygon class="cls-3" points="597.02 38.3 591.21 70.2 599.98 89.81 609.29 38.3 597.02 38.3"/><polygon class="cls-4" points="169.66 28.61 160.51 34.25 155.52 27.24 150.48 34.25 141.33 28.61 155.52 10.08 169.66 28.61"/></g></g></svg>